<svg xmlns="http://www.w3.org/2000/svg" xmlns:xlink="http://www.w3.org/1999/xlink" id="Layer_1" x="0" y="0" version="1.1" viewBox="0 0 512.001 512.001" style="enable-background:new 0 0 512.001 512.001" xml:space="preserve"><g><g><path d="M475.433,274.983L265.716,85.746c-5.518-4.982-13.907-4.982-19.426,0l-75.954,68.536v-3.604 c0-8.006-6.491-14.499-14.499-14.499H95.771c-8.008,0-14.499,6.493-14.499,14.499v83.969L36.57,274.984 c-4.454,4.018-5.974,10.367-3.82,15.968c2.153,5.599,7.534,9.295,13.533,9.295h38.439v197.256c0,8.006,6.491,14.499,14.499,14.499 h313.558c8.006,0,14.499-6.493,14.499-14.499V300.245h38.441c6,0,11.38-3.696,13.533-9.295 C481.405,285.351,479.887,279.002,475.433,274.983z M110.27,165.177h31.067v15.269l-31.067,28.034V165.177z M412.78,271.248 c-8.006,0-14.499,6.493-14.499,14.499v197.256H113.721V300.193h204.098c8.006,0,14.499-6.493,14.499-14.499 s-6.493-14.499-14.499-14.499H98.43c-0.351,0-0.693,0.028-1.037,0.052h-13.4l172.007-155.209l172.007,155.209H412.78z"/></g></g><g><g><path d="M376.891,282.866c-0.189-0.929-0.464-1.843-0.826-2.727c-0.362-0.87-0.812-1.711-1.334-2.494 c-0.536-0.797-1.145-1.537-1.812-2.204c-3.364-3.364-8.38-4.917-13.078-3.958c-0.929,0.174-1.843,0.464-2.711,0.826 c-0.884,0.362-1.725,0.812-2.508,1.334c-0.797,0.522-1.537,1.131-2.204,1.798c-0.667,0.667-1.276,1.406-1.798,2.204 c-0.522,0.783-0.971,1.624-1.334,2.494c-0.362,0.884-0.638,1.798-0.826,2.727c-0.188,0.928-0.29,1.885-0.29,2.826 c0,0.942,0.102,1.901,0.29,2.827s0.465,1.844,0.828,2.727c0.362,0.871,0.812,1.712,1.334,2.495 c0.522,0.797,1.131,1.537,1.798,2.204c0.667,0.667,1.406,1.276,2.204,1.798c0.783,0.52,1.624,0.971,2.508,1.334 c0.87,0.362,1.782,0.652,2.711,0.841c0.928,0.188,1.885,0.274,2.826,0.274c3.815,0,7.555-1.55,10.251-4.248 c0.667-0.667,1.276-1.406,1.798-2.204c0.522-0.783,0.971-1.624,1.334-2.495c0.362-0.883,0.652-1.798,0.841-2.726 c0.188-0.928,0.274-1.885,0.274-2.827C377.165,284.751,377.078,283.792,376.891,282.866z"/></g></g><g><g><path d="M342.731,370.053c-1.463-30.5-24.19-54.39-51.744-54.39c-14.452,0-26.672,6.192-34.832,11.863 c-8.057-5.707-20.208-11.863-35.139-11.863c-6.888,0-13.475,1.493-19.502,4.209c-18.084,8.148-31.142,27.306-32.238,50.181 c-0.86,17.964,5.366,30.764,10.123,38.828c10.291,17.446,50.616,45.151,65.149,54.783c1.504,0.996,2.732,1.799,3.62,2.378 c2.402,1.56,5.151,2.34,7.9,2.34c2.748,0,5.497-0.78,7.898-2.339c9.458-6.142,57.226-37.77,68.649-57.175 C337.367,400.792,343.587,387.981,342.731,370.053z M313.778,374.889c-0.104,3.049-0.58,5.94-1.45,8.843 c-1.006,3.355-2.53,6.736-4.705,10.429c-3.726,6.33-18.122,18.229-33.55,29.592c-0.671,0.494-1.344,0.987-2.017,1.479 c-1.348,0.983-2.7,1.96-4.051,2.927c-4.054,2.9-8.09,5.71-11.941,8.321c-2.127-1.44-4.267-2.913-6.406-4.405 c-20.665-14.428-41.043-30.735-45.286-37.926c-4.682-7.937-6.516-14.727-6.134-22.707c0.708-14.767,10.925-26.781,22.776-26.781 c13.498,0,24.116,11.413,24.151,11.448c2.703,3.04,6.556,4.805,10.625,4.864c0.071,0.001,0.142,0.001,0.212,0.001 c0.106,0,0.209-0.014,0.315-0.016c3.884-0.044,7.567-1.705,10.236-4.537c0.11-0.117,11.661-11.761,24.435-11.761 c11.853,0,22.07,12.014,22.778,26.779c0.048,1.009,0.062,1.994,0.042,2.962C313.804,374.568,313.784,374.725,313.778,374.889z"/></g></g><g><g><path d="M192.796,43.302C191.634,19.021,173.377,0,151.234,0c-10.194,0-18.959,3.854-25.3,7.844 C119.641,3.832,110.884,0,100.375,0c-22.144,0-40.4,19.021-41.564,43.302c-0.676,14.116,4.187,24.126,7.903,30.424 c8.486,14.384,41.364,36.437,51.238,42.854c2.402,1.56,5.151,2.34,7.9,2.34c2.748,0,5.495-0.78,7.896-2.339 c9.843-6.391,42.618-28.371,51.152-42.867C188.613,67.405,193.471,57.391,192.796,43.302z M159.91,59.003 c-2.914,4.954-18.638,17.374-34.058,27.976C110.364,76.335,94.584,63.899,91.69,58.993c-3.02-5.121-4.155-9.265-3.913-14.303 c0.407-8.507,6.177-15.692,12.598-15.692c6.568,0,12.726,5.02,14.635,7.039c2.669,3.109,6.43,4.825,10.529,4.93 c4.151,0.107,7.987-1.666,10.815-4.666c1.366-1.45,8.309-7.305,14.879-7.305c6.422,0,12.192,7.186,12.598,15.692 C164.071,49.715,162.935,53.862,159.91,59.003z"/></g></g></svg>